<?xml version="1.0" encoding="UTF-8" standalone="no"?><!DOCTYPE svg PUBLIC "-//W3C//DTD SVG 1.1//EN" "http://www.w3.org/Graphics/SVG/1.1/DTD/svg11.dtd"><svg width="100%" height="100%" viewBox="0 0 536 536" version="1.1" xmlns="http://www.w3.org/2000/svg" xmlns:xlink="http://www.w3.org/1999/xlink" xml:space="preserve" xmlns:serif="http://www.serif.com/" style="fill-rule:evenodd;clip-rule:evenodd;stroke-linejoin:round;stroke-miterlimit:1.41421;"><path d="M209.81,322.15c-6.2,-4.77 -12.26,-9.73 -18.63,-14.26c-12.6,-9.086 -26.5,-16.216 -41.23,-21.15c-17,-5.63 -34.09,-11.75 -49.38,-21.31c-12.926,-7.977 -23.109,-19.717 -29.18,-33.64c-2.54,-5.79 -11.42,-19.73 -7.91,-26c3.68,-6.62 8,-0.77 10.1,3.15c8.23,15.48 19.75,28.15 33,39.25c5.91,4.94 12.71,8.66 20.59,9.85c2.148,0.47 4.27,1.047 6.36,1.73c-1.6,-2.66 -2.47,-4.64 -3.8,-6.24c-10.43,-12.64 -17.67,-27.22 -22.66,-42.49c-7.7,-23.62 -13.83,-47.76 -20.35,-71.75c-2.392,-8.718 -4.298,-17.561 -5.71,-26.49c-0.75,-4.84 -0.31,-10 0.3,-14.9c2.2,-17.58 8.6,-33.74 17.64,-48.86c1.52,-2.55 3.3,-5.58 7.39,-5.24c2.71,0.23 4.21,0.51 3.5,4c-3.39,16.61 -14.72,36 -9.28,53c0.33,1 1.06,2.26 2.13,2.08c3.07,-0.52 8.26,-11.32 9.74,-13.88c2.55,-4.39 6,-9.31 7.43,-14.24c1.18,-4.07 0.39,-8.83 0,-13.24c-1.75,-17.87 -2,-36 7.18,-51.91c2.44,-4.3 6.13,-8.3 10.91,-9.61c1.86,3.78 -0.09,8.22 -1.58,12.16c-4,10.55 -6,25 0.48,34.9c4.9,7.43 10,9 17.47,4.18c8.89,-5.77 17.61,-11.8 26.37,-17.76c7,-4.76 13.72,-10 21,-14.22c3.13,-1.84 7.32,-2.13 11.08,-2.48c1.28,-0.12 2.74,1.73 4.12,2.68c-0.85,1.2 -1.49,2.67 -2.6,3.55c-7.41,5.9 -15.09,11.45 -22.34,17.54c-8.75,7.36 -17.37,14.9 -25.66,22.76c-9.3,8.83 -18.56,17.78 -27.1,27.33c-6.5,7.27 -13,15 -17.45,23.55c-5.52,10.59 -8.58,22 -4,34.52c5.48,14.84 8.9,30.45 14.41,45.28c5,13.37 10.62,26.66 17.69,39c5.39,9.4 13.17,17.52 20.46,25.7c6.19,7 13.2,13.18 19.86,19.72c0.845,0.981 1.813,1.848 2.88,2.58c2.79,1.56 4.72,1.67 5.05,-2.54c0.73,-9.17 1.64,-18.34 2.91,-27.45c0.58,-4.13 2.08,-8.15 3.34,-12.16c1.12,-3.55 3.93,-5.76 7.34,-4.65c1.5,0.49 2.65,4 2.83,6.29c0.9,11.12 0.6,22.39 2.3,33.37c1.75,11.32 8.06,20.66 17.21,27.81c6.392,5.08 13.154,9.676 20.23,13.75c2.68,1.53 5.89,1.72 9,1.87l12.37,0.62c4.637,0.58 9.346,-0.111 13.62,-2c5.31,-2 10.16,-3.53 14.6,-6.88c2.13,-1.6 14,-9 14,-11.48c8.54,-7.75 13.53,-17.2 14.39,-28.62c0.69,-9.19 0.71,-18.43 1.18,-27.65c0.12,-2.3 -1.27,-5.88 2.84,-6c3.74,-0.14 7.68,0.33 8.7,5.11c1.35,6.33 3.13,12.64 3.68,19.05c0.64,7.5 0.15,15.1 0.15,24c2.58,-1.46 4.39,-2 5.61,-3.24c9.1,-8.91 18.88,-17.29 26.89,-27.11c9.188,-11.039 17.292,-22.938 24.2,-35.53c5.63,-10.53 8.69,-22.5 12.41,-34c3.48,-10.74 6.43,-21.65 9.43,-32.53c4.36,-15.82 0.83,-30.22 -9.09,-42.88c-5.817,-7.273 -12.093,-14.167 -18.79,-20.64c-10.31,-10.16 -20.9,-20 -31.63,-29.76c-9.33,-8.43 -19.04,-16.29 -28.33,-24.64c-4.31,-3.79 -10,-10.91 -0.42,-9.79c4,0.48 8.77,3.34 12,5.76c8.92,6.75 18.54,12.59 28.05,18.52c5.52,3.44 11.37,6.36 17.13,9.41c5.1,2.7 10.35,0.81 13.74,-4.1c3.8,-5.51 3.9,-11.68 3.28,-17.71c-0.41,-4 -6.27,-26.87 -3.38,-28.48c1.392,-0.589 2.988,-0.462 4.27,0.34c6.8,3.48 9.1,14.72 10.56,21.44c2.39,11 3.08,22.39 0.57,33.45c-2.36,10.41 0.35,19.72 6.26,28.37c3.48,5.09 5.8,11.45 10.16,15.82c2.68,-2.33 2.93,-6.35 2.81,-9.9c-0.407,-12.09 -2.806,-24.031 -7.1,-35.34c-0.9,-2.36 -1.89,-4.85 -1.43,-7.33c1.74,-9.37 9.44,0.59 11.42,3.65c6.472,10.096 11.075,21.274 13.59,33c2,8.85 1.93,18.33 1.48,27.46c-0.91,18.53 -6.84,36.14 -11.65,53.88c-3.84,14.16 -7.68,28.47 -13.34,42c-3.769,8.494 -8.029,16.762 -12.76,24.76c-2.39,4.22 -4.68,8.51 -7.12,12.7c-0.94,1.61 -6.45,7.33 -6,8.84c0.45,1.51 2.48,1.42 3.94,1.06c11.319,-2.869 21.644,-8.772 29.86,-17.07c6.37,-6.45 11.39,-14.05 16.33,-21.62c3.34,-5.12 9.17,-19.33 16.48,-18.12c6.94,1.15 0,17.37 -2.16,21.23c-5.35,9.66 -11,19.46 -18.31,27.65c-7.738,8.643 -17.526,15.204 -28.46,19.08c-10.35,3.73 -20.27,8.64 -30.4,13c-11.33,4.84 -22.91,9.15 -34,14.56c-9.17,4.49 -17.73,10.25 -26.54,15.47c-0.402,0.262 -0.708,0.648 -0.87,1.1c-0.83,2.4 -1.59,4.83 -2.37,7.25c2,-0.91 4.07,-1.68 6,-2.75c10.79,-6.08 21.23,-12.86 32.38,-18.18c12.001,-5.781 25.316,-8.303 38.6,-7.31c3.125,0.445 5.472,3.149 5.472,6.306c0,0.524 -0.064,1.046 -0.192,1.554c-1.604,5.646 -3.831,11.096 -6.64,16.25c-4.25,7.881 -9.115,15.414 -14.55,22.53c-5.56,7 -11.15,14.57 -20.42,17.21c-4.42,1.26 -9.18,1.3 -13.64,2.46c-6.14,1.6 -12.21,3.57 -18.16,5.77c-1.437,0.843 -2.372,2.339 -2.5,4c0.08,5.8 0.08,11.71 1.15,17.38c1.75,9.32 -0.14,18.29 -3.35,26.56c-5.05,13 -11.79,25.39 -17.6,38.13c-1.241,3.138 -2.185,6.386 -2.82,9.7c-3.35,13.76 -5.65,27.94 -10.35,41.26c-2.58,7.3 -10.21,12 -17.22,16.17c-9.73,5.85 -20.45,5 -30.41,3.18c-7.36,-1.32 -13.88,-7 -20.94,-10.44c-7.85,-3.79 -9.7,-11.48 -11.58,-18.54c-3.56,-13.39 -5.91,-27.09 -9,-40.61c-0.62,-2.74 -2.18,-5.28 -3.36,-7.89c-5,-11.08 -10,-22.13 -15,-33.25c-0.622,-1.654 -0.983,-3.395 -1.07,-5.16c-1.32,-13.34 -2.53,-26.7 -4,-40c-0.12,-1.1 -1.78,-2.88 -2.77,-2.9c-11.38,-0.34 -21.82,-3.76 -31.77,-9c-10.18,-5.4 -17.63,-13.76 -23.4,-23.33c-5.141,-8.838 -9.652,-18.027 -13.5,-27.5c-2.72,-6.41 1.4,-11.25 9.07,-11.7c12.89,-0.76 25.39,1.11 36.57,7.74c6.45,3.83 12,9.17 18.18,13.44c5.35,3.68 11,6.94 16.68,10.09c1,0.56 2.81,-0.33 4.24,-0.55l0.61,-1.91Z" style="fill-rule:nonzero;"/><path d="M12.04,608.65c-0.12,-1.93 -1.12,-9.4 -3.85,-7.53c-1.8,1.23 -1.88,5.84 -2.16,7.76c-1.39,9.46 -2.06,19.1 -6.65,27.74c-1.54,2.91 -3.77,5.44 -5.69,8.15c1.07,-1.52 0.67,-6.39 0.84,-8.28c0.273,-2.913 0.513,-5.833 0.72,-8.76c0.4,-5.62 0.68,-11.24 0.81,-16.87c0.525,-16.728 -0.745,-33.463 -3.79,-49.92c-1.582,-8.208 -3.741,-16.295 -6.46,-24.2c-1.387,-4 -2.927,-7.963 -4.62,-11.89c-1.11,-2.57 -2.88,-9.12 -5.52,-10.29c-2.09,2.19 0.4,7.59 0.88,10.17c0.92,4.93 1.89,9.85 2.73,14.79c1.69,9.89 3.2,19.79 4.3,29.79c1,9.65 1.33,19.38 1.94,29.08l-1.25,0.15c-0.13,0 -8.17,-20.49 -9.22,-22.35c-0.76,-1.35 -4.72,-8.94 -6.31,-7c-1.15,1.38 1.51,6.28 1.94,7.76c1,3.47 2,7 2.77,10.47c4.07,17.63 6.29,35.37 1.34,53.22c-1.64,5.93 -3.89,11.65 -9,17.41c-1.47,-4.09 -3,-7.06 -3.59,-10.2c-1.74,-8.78 -2.71,-17.73 -4.74,-26.44c-1.735,-7.532 -4.587,-14.762 -8.46,-21.45c-0.8,-1.37 -4.91,-9.37 -6.56,-9.27c-2.73,0.16 1.17,6.43 1.69,7.56c5.38,11.69 10.49,25.57 5.44,38.4c-0.23,0.6 -0.6,1.27 -1.24,1.34c-0.481,-0.012 -0.94,-0.209 -1.28,-0.55c-3.4,-2.66 -7.54,-4.91 -10.71,-7.76c-2.53,-2.492 -4.811,-5.225 -6.81,-8.16c-0.94,-1.25 -5.73,-8.39 -7.41,-7.23c-2,1.37 1.45,7 2.35,8.34c5.87,8.5 11.92,16.89 18.36,25c3.79,4.74 6.5,9.46 5.58,15.74c-2.47,16.86 -7.83,32.53 -19.39,45.43c-3.81,4.25 -8.44,7.76 -12.69,11.61l-1,-0.9c-0.91,-0.82 2,-12.1 2.2,-13.77c0.65,-4.592 0.984,-9.223 1,-13.86c0,-1.79 0.73,-9.59 -2.22,-7.72c-1.68,1.06 -2,4.63 -2.61,6.37c-1.52,4.61 -2.88,9.27 -4.46,13.86c-5.6,16.18 -16.17,27.23 -32.94,31.92c-3.36,0.94 -6.62,2.2 -9.92,3.33c-13.15,4.48 -21.65,14.75 -30.28,24.72c-1.87,2.17 -2.68,5.43 -3.47,8.33c-1.22,4.46 -4.32,6.52 -8.47,6.89c-4.106,0.255 -8.224,0.255 -12.33,0c-3.25,-0.11 -5.07,-1.62 -5.79,-5.16c-0.72,-3.54 -1.73,-7.68 -4,-10.3c-9.57,-10.87 -19.91,-21.49 -33.92,-26.08c-8.38,-2.75 -11.86,-8 -14.22,-15.26c-0.738,-2.788 -1.694,-5.513 -2.86,-8.15c-2.38,-4.667 -4.8,-9.307 -7.26,-13.92c-1.22,-2.3 -3.93,-10.34 -6.78,-10.53c-0.62,1.8 0.21,3.88 0.59,5.68c0.65,3.08 1.37,6.14 2,9.23c0.649,3.128 1.123,6.289 1.42,9.47c0.09,1.06 -0.44,8.57 0,8.91c-2,-1.41 -3.13,-2.09 -4.1,-3c-13.237,-11.494 -24.878,-24.708 -34.61,-39.29c-5.37,-8.16 -10,-16.71 -11.58,-26.53c-2.87,-18.34 0.8,-35.67 8.62,-52.24c3.37,-7.14 7.15,-14.09 10.58,-21.21c0.69,-1.43 0.59,-3.22 0.86,-4.85l-1.44,-0.32c-12.83,14.58 -26.29,28.75 -28.5,49.57c-0.69,6.49 -1.79,12.94 -2.94,19.37c-0.75,4.2 -1.9,8.34 -2.87,12.5l-1.65,0.27c-1.5,-2 -3.36,-3.73 -4.42,-5.9c-6.06,-12.4 -9.38,-25.71 -7.6,-39.31c1,-7.26 2.48,-14.44 4.14,-21.57c0.83,-3.58 1.7,-7.15 2.55,-10.72c0.4,-1.68 2.93,-8 2.13,-9.49c-2,-3.59 -9,9.36 -9.77,11.26c-1.13,2.75 -2,5.58 -3,8.4c-0.66,2 -2.7,5.48 -2.64,7.55c-0.33,-11.49 -0.58,-22.92 1,-34.1c1.78,-12.58 5.29,-24.9 7.89,-37.37c1.11,-5.33 1.81,-10.74 2.69,-16.12l-1.67,-0.23c-20.55,43.17 -28.2,88.23 -18.37,135.81c-2.74,-3.05 -6.27,-6.22 -7.93,-10c-1.921,-4.44 -3.421,-9.05 -4.48,-13.77c-1.25,-5.45 -0.58,-10.33 -1.26,-15.79c-0.37,-3 -2.05,-5 -5.58,-4.89c-1.24,0 -1.15,16.63 -1.06,18.26c0.232,6.165 1.282,12.271 3.12,18.16c2.247,6.544 5.954,12.491 10.84,17.39c5.34,5.43 11.5,8.48 18.17,12c1.289,0.816 2.503,1.742 3.63,2.77l-0.75,1.33c-9.31,1.52 -18.21,-1 -26.35,-5.47c-2.35,-1.29 -20.95,-13.94 -21.58,-12.81c-0.81,1.43 4.76,5.72 5.7,6.82c13.14,15.51 29.81,24.45 49.78,27.83c9.229,1.539 17.762,5.888 24.43,12.45c1.31,1.27 2.65,2.54 4,3.81c-3.46,0.47 -6.06,0.93 -9.66,-0.47c-1.32,-0.52 -3,-1.11 -4,-0.08c-0.657,0.895 -0.559,2.149 0.23,2.93c0.795,0.738 1.76,1.267 2.81,1.54c2.84,0.965 5.735,1.76 8.67,2.38c3.23,0.71 6.46,1.3 9.71,2l0.27,0.34c6.45,8.47 14.44,15.13 22.57,21.81c12.58,10.34 24.95,20.94 37.2,31.67c5.74,5 6.15,10.79 1.72,17.3c-0.812,-1.448 -1.752,-2.821 -2.81,-4.1c-4.11,-4.15 -7.8,-9.07 -12.66,-12c-6.44,-3.89 -13.83,-6.2 -20.82,-9.15c-5,-2.12 -10,-4.31 -15.16,-6.23c-4,-1.5 -6.7,0 -6.87,3.6c-0.79,16.93 3,32.56 13,46.5c5.08,7.07 11.26,12.13 20.12,13.77c6.85,1.27 13.63,3 20.35,4.9c5.92,1.64 8.6,5.91 9.61,12c0.83,5 2.89,9.74 4.39,14.61c0.48,1.57 1.47,3.22 1.29,4.73c-2.18,18.06 -3.26,36.23 -8.93,53.82c-6.5,20.19 -14.53,39.88 -18.64,60.89c-2.76,14.14 -2.3,27.17 6.17,39.16c7.79,11 15.35,22.32 23.93,32.73c8.82,10.7 19,20.14 31.46,26.8c12.64,6.78 25.09,6.57 36.17,-2.73c9.43,-7.909 18.333,-16.428 26.65,-25.5c7.704,-8.317 12.976,-18.592 15.24,-29.7c4.62,-23 1.65,-45.46 -6.79,-67.11c-6.19,-15.88 -11.64,-31.89 -14.78,-48.69c-2.65,-14.2 -6.34,-28.32 -4.06,-42.88c0.988,-6.797 2.788,-13.451 5.36,-19.82c3.8,-9.06 4.31,-8.62 16.18,-10c17.3,-2 30.65,-10.18 38.85,-25.92c5.64,-10.83 7.2,-22.47 6.65,-34.49c-0.12,-2.62 -0.49,-5.23 -0.8,-8.43c-2.75,1.1 -4.57,1.8 -6.38,2.55c-9,3.74 -17.81,7.83 -26.94,11.15c-10.06,3.67 -19.42,7.93 -24.21,18.49c-4.41,-5.1 -4.94,-8.57 -0.35,-12.52c9.2,-7.9 18.28,-16.33 28.68,-22.37c19.37,-11.25 36.93,-24.32 51.62,-40.7c3.46,-0.78 6.9,-1.4 10.33,-2.16c2.935,-0.62 5.83,-1.415 8.67,-2.38c1.05,-0.273 2.015,-0.802 2.81,-1.54c0.789,-0.781 0.887,-2.035 0.23,-2.93c-1,-1 -2.66,-0.44 -4,0.08c-3.86,1.51 -6.56,0.86 -10.42,0.37l-0.44,0c1.63,-2.09 3.24,-4.22 4.79,-6.42c6.52,-9.29 13.91,-17.57 23.9,-23.46c4.165,-2.511 7.816,-5.789 10.76,-9.66c11.3,-14.85 14.54,-31.95 13.38,-50.07Z" style="fill-rule:nonzero;"/></svg>