<?xml version="1.0" encoding="UTF-8" standalone="no"?><!DOCTYPE svg PUBLIC "-//W3C//DTD SVG 1.1//EN" "http://www.w3.org/Graphics/SVG/1.1/DTD/svg11.dtd"><svg width="100%" height="100%" viewBox="0 0 147 147" version="1.1" xmlns="http://www.w3.org/2000/svg" xmlns:xlink="http://www.w3.org/1999/xlink" xml:space="preserve" xmlns:serif="http://www.serif.com/" style="fill-rule:evenodd;clip-rule:evenodd;stroke-linejoin:round;stroke-miterlimit:1.41421;"><path d="M11.413,34.33c2.862,-4.518 6.262,-8.792 10.201,-12.731c1.388,-1.388 2.818,-2.71 4.286,-3.962l24.733,14.279l18.336,-31.759c5.482,-0.357 10.998,-0.105 16.437,0.756l0.087,0.013c14.827,2.364 29.067,9.256 40.485,20.673c28.8,28.8 28.8,75.563 0,104.363c-13.839,13.84 -32.61,21.615 -52.182,21.615l0,-4.487l-0.007,0l0,-69.309l21.826,0l0,46.838c5.419,-2.524 10.41,-5.993 14.718,-10.302c20.166,-20.165 20.166,-52.908 0,-73.073c-8.199,-8.2 -18.479,-13.066 -29.146,-14.596l-12.719,22.029l-9.846,17.055l-18.903,-10.914l-9.187,-5.304c-13.124,20.04 -10.881,47.195 6.727,64.803l-15.645,15.645c-24.849,-24.849 -28.272,-63.01 -10.269,-91.525l0.068,-0.107Z" style="fill:#fff;"/></svg>